<?xml version="1.0" encoding="UTF-8"?>
<svg version="1.1" xmlns="http://www.w3.org/2000/svg" width="2048" height="2048">
<path d="M0 0 C113.52 0 227.04 0 344 0 C344 110.88 344 221.76 344 336 C381.62 336 419.24 336 458 336 C458.33 350.52 458.66 365.04 459 380 C459.33 380.99 459.66 381.98 460 383 C459.34 383 458.68 383 458 383 C458 393.89 458 404.78 458 416 C458.66 416 459.32 416 460 416 C460 416.99 460 417.98 460 419 C459.34 419 458.68 419 458 419 C458 430.22 458 441.44 458 453 C458.99 453 459.98 453 461 453 C461 453.66 461 454.32 461 455 C497.3 455 533.6 455 571 455 C571 490.64 571 526.28 571 563 C571.99 563.33 572.98 563.66 574 564 C574.33 564.66 574.66 565.32 575 566 C610.97 566.33 646.94 566.66 684 567 C684 868.62 684 1170.24 684 1481 C646.38 1481.33 608.76 1481.66 570 1482 C570 1556.25 570 1630.5 570 1707 C532.71 1706.67 495.42 1706.34 457 1706 C456.67 1706.99 456.34 1707.98 456 1709 C455.34 1709 454.68 1709 454 1709 C454 1746.29 454 1783.58 454 1822 C417.37 1822.33 380.74 1822.66 343 1823 C343 1823.66 343 1824.32 343 1825 C342.01 1825 341.02 1825 340 1825 C340 1860.64 340 1896.28 340 1933 C266.41 1933 192.82 1933 117 1933 C117 1933.66 117 1934.32 117 1935 C115.68 1935.33 114.36 1935.66 113 1936 C113 1972.63 113 2009.26 113 2047 C78.73362591 2047.13248471 78.73362591 2047.13248471 66.40104675 2047.17797852 C65.58800003 2047.18097804 64.77495331 2047.18397757 63.93726882 2047.18706799 C27.37845313 2047.32160413 -9.18041801 2047.43991668 -45.73930627 2047.5528124 C-48.86290721 2047.56246264 -51.98650803 2047.57215188 -55.11010885 2047.58184195 C-170.8944123 2047.94016762 -286.6763621 2048.05156191 -496.96761668 2047.57217997 C-500.5748679 2047.5624667 -504.18211921 2047.55278763 -507.78937054 2047.54311228 C-550.08630359 2047.42950467 -592.38322003 2047.31013211 -634.68009949 2047.17797852 C-635.57048734 2047.17519677 -636.46087519 2047.17241503 -637.3782445 2047.16954899 C-654.91883484 2047.11461555 -672.45941623 2047.05701585 -690 2047 C-690 2009.05 -690 1971.1 -690 1932 C-763.59 1932 -837.18 1932 -913 1932 C-913.33 1895.04 -913.66 1858.08 -914 1820 C-916.81036753 1819.06321082 -918.54490898 1818.86743303 -921.45413208 1818.84851074 C-922.82124329 1818.83599525 -922.82124329 1818.83599525 -924.2159729 1818.82322693 C-925.21349579 1818.81904251 -926.21101868 1818.81485809 -927.23876953 1818.81054688 C-928.29098694 1818.80225357 -929.34320435 1818.79396027 -930.42730713 1818.78541565 C-932.71411758 1818.76800635 -935.00094597 1818.75284194 -937.28778458 1818.73963928 C-940.90087849 1818.71864503 -944.51388189 1818.69162124 -948.12692261 1818.66296387 C-957.09840416 1818.59306409 -966.06994973 1818.53363836 -975.04150391 1818.47393799 C-982.62313567 1818.42310465 -990.20471821 1818.36831764 -997.78628159 1818.30812073 C-1001.3566214 1818.28144568 -1004.92696556 1818.26069415 -1008.49734497 1818.2401123 C-1010.67157207 1818.2235181 -1012.84579709 1818.20664705 -1015.02001953 1818.18945312 C-1016.02159088 1818.18526871 -1017.02316223 1818.18108429 -1018.05508423 1818.17677307 C-1019.41373596 1818.16425758 -1019.41373596 1818.16425758 -1020.79983521 1818.15148926 C-1021.59144609 1818.14633553 -1022.38305698 1818.14118179 -1023.19865608 1818.13587189 C-1025 1818 -1025 1818 -1026 1817 C-1026.10771905 1815.5456272 -1026.14681259 1814.08610424 -1026.15821838 1812.62779236 C-1026.1680072 1811.68403244 -1026.17779602 1810.74027252 -1026.18788147 1809.76791382 C-1026.19363693 1808.72422638 -1026.1993924 1807.68053894 -1026.20532227 1806.60522461 C-1026.21522186 1805.51267868 -1026.22512146 1804.42013275 -1026.23532104 1803.29447937 C-1026.2670445 1799.66378994 -1026.29173618 1796.03308741 -1026.31640625 1792.40234375 C-1026.33696642 1789.89270171 -1026.35796263 1787.38306322 -1026.37937927 1784.87342834 C-1026.4290351 1778.93068679 -1026.47427523 1772.98792189 -1026.51740164 1767.04513031 C-1026.57156869 1759.61794064 -1026.63254588 1752.19080958 -1026.69335938 1744.76367188 C-1026.8010592 1731.50915442 -1026.90266698 1718.25459743 -1027 1705 C-1027.99 1705 -1028.98 1705 -1030 1705 C-1030 1704.34 -1030 1703.68 -1030 1703 C-1066.3 1703 -1102.6 1703 -1140 1703 C-1140 1551.86 -1140 1400.72 -1140 1245 C-877.65 1245 -615.3 1245 -345 1245 C-345 1207.71 -345 1170.42 -345 1132 C-270.09 1131.67 -195.18 1131.34 -118 1131 C-117.67 1094.37 -117.34 1057.74 -117 1020 C-80.7 1020 -44.4 1020 -7 1020 C-7 1019.34 -7 1018.68 -7 1018 C-6.34 1017.67 -5.68 1017.34 -5 1017 C-4.67 905.79 -4.34 794.58 -4 680 C53.42 679.505 53.42 679.505 112 679 C111.67 568.78 111.34 458.56 111 345 C110.34 345 109.68 345 109 345 C109 344.34 109 343.68 109 343 C73.03 343 37.06 343 0 343 C0 229.81 0 116.62 0 0 Z " fill="#FFFFFF" transform="translate(1252,0)"/>
</svg>
